<svg xmlns="http://www.w3.org/2000/svg" xmlns:xlink="http://www.w3.org/1999/xlink" width="62"
    height="62" viewBox="0 0 62 62" fill="none">
    <path fill-rule="evenodd" clip-rule="evenodd"
        d="M21.5919 27.1031L3.81352 27.1717C1.70499 27.1799 0 28.8915 0 31C0 33.1085 1.70499 34.8201 3.81352 34.8283L21.5919 34.8969L9.06925 47.5167C7.58406 49.0135 7.58873 51.4293 9.07969 52.9203C10.5707 54.4113 12.9865 54.4159 14.4833 52.9307L27.1031 40.4081L27.1717 58.1865C27.1799 60.295 28.8915 62 31 62C33.1085 62 34.8201 60.295 34.8283 58.1865L34.8969 40.4081L47.5167 52.9307C49.0135 54.4159 51.4293 54.4113 52.9203 52.9203C54.4113 51.4293 54.4159 49.0135 52.9307 47.5167L40.4081 34.8969L58.1865 34.8283C60.295 34.8201 62 33.1085 62 31C62 28.8915 60.295 27.1799 58.1865 27.1717L40.4081 27.1031L52.9307 14.4833C54.4159 12.9865 54.4113 10.5707 52.9203 9.07969C51.4293 7.58873 49.0135 7.58406 47.5167 9.06925L34.8969 21.5919L34.8283 3.81352C34.8201 1.70499 33.1085 0 31 0C28.8915 0 27.1799 1.70499 27.1717 3.81352L27.1031 21.5919L14.4833 9.06925C12.9865 7.58406 10.5707 7.58873 9.07969 9.07969C7.58873 10.5707 7.58406 12.9865 9.06925 14.4833L21.5919 27.1031Z"
        fill="white" />
    <path fill-rule="evenodd" clip-rule="evenodd"
        d="M21.5919 27.1031L3.81352 27.1717C1.70499 27.1799 0 28.8915 0 31C0 33.1085 1.70499 34.8201 3.81352 34.8283L21.5919 34.8969L9.06925 47.5167C7.58406 49.0135 7.58873 51.4293 9.07969 52.9203C10.5707 54.4113 12.9865 54.4159 14.4833 52.9307L27.1031 40.4081L27.1717 58.1865C27.1799 60.295 28.8915 62 31 62C33.1085 62 34.8201 60.295 34.8283 58.1865L34.8969 40.4081L47.5167 52.9307C49.0135 54.4159 51.4293 54.4113 52.9203 52.9203C54.4113 51.4293 54.4159 49.0135 52.9307 47.5167L40.4081 34.8969L58.1865 34.8283C60.295 34.8201 62 33.1085 62 31C62 28.8915 60.295 27.1799 58.1865 27.1717L40.4081 27.1031L52.9307 14.4833C54.4159 12.9865 54.4113 10.5707 52.9203 9.07969C51.4293 7.58873 49.0135 7.58406 47.5167 9.06925L34.8969 21.5919L34.8283 3.81352C34.8201 1.70499 33.1085 0 31 0C28.8915 0 27.1799 1.70499 27.1717 3.81352L27.1031 21.5919L14.4833 9.06925C12.9865 7.58406 10.5707 7.58873 9.07969 9.07969C7.58873 10.5707 7.58406 12.9865 9.06925 14.4833L21.5919 27.1031Z"
        fill="url(#paint0_radial_29_291)" />
    <path fill-rule="evenodd" clip-rule="evenodd"
        d="M21.5919 27.1031L3.81352 27.1717C1.70499 27.1799 0 28.8915 0 31C0 33.1085 1.70499 34.8201 3.81352 34.8283L21.5919 34.8969L9.06925 47.5167C7.58406 49.0135 7.58873 51.4293 9.07969 52.9203C10.5707 54.4113 12.9865 54.4159 14.4833 52.9307L27.1031 40.4081L27.1717 58.1865C27.1799 60.295 28.8915 62 31 62C33.1085 62 34.8201 60.295 34.8283 58.1865L34.8969 40.4081L47.5167 52.9307C49.0135 54.4159 51.4293 54.4113 52.9203 52.9203C54.4113 51.4293 54.4159 49.0135 52.9307 47.5167L40.4081 34.8969L58.1865 34.8283C60.295 34.8201 62 33.1085 62 31C62 28.8915 60.295 27.1799 58.1865 27.1717L40.4081 27.1031L52.9307 14.4833C54.4159 12.9865 54.4113 10.5707 52.9203 9.07969C51.4293 7.58873 49.0135 7.58406 47.5167 9.06925L34.8969 21.5919L34.8283 3.81352C34.8201 1.70499 33.1085 0 31 0C28.8915 0 27.1799 1.70499 27.1717 3.81352L27.1031 21.5919L14.4833 9.06925C12.9865 7.58406 10.5707 7.58873 9.07969 9.07969C7.58873 10.5707 7.58406 12.9865 9.06925 14.4833L21.5919 27.1031Z"
        fill="url(#pattern0)" style="mix-blend-mode:multiply" />
    <defs>
        <pattern id="pattern0" patternContentUnits="objectBoundingBox" width="1.6129"
            height="1.6129">
            <use xlink:href="#image0_29_291" transform="scale(0.00322581)" />
        </pattern>
        <radialGradient id="paint0_radial_29_291" cx="0" cy="0" r="1" gradientUnits="userSpaceOnUse"
            gradientTransform="translate(19.0778 44.4632) rotate(-90) scale(48.8381)">
            <stop stop-color="#FFEBE7" />
            <stop offset="0.6721" stop-color="#FF9C7C" />
            <stop offset="0.8164" stop-color="#FF9983" />
            <stop offset="0.9014" stop-color="#FF774B" />
            <stop offset="1" stop-color="#E76F00" />
        </radialGradient>
    </defs>
</svg>